<svg version="1.1" id="Layer_1" xmlns="http://www.w3.org/2000/svg" width="32px" height="32px" viewBox="0 0 32 32">
		<path  fill="#ffffff"  d="M17.5,17.6c-0.1,0-0.2,0-0.3,0.1c-0.1,0-0.2,0.1-0.3,0.2v-1.4h-0.6v4.3h0.6v-0.2c0.1,0.1,0.2,0.2,0.3,0.2
			c0.1,0,0.2,0.1,0.3,0.1c0.2,0,0.3-0.1,0.4-0.2c0.1-0.1,0.1-0.3,0.1-0.5v-1.8c0-0.3-0.1-0.5-0.2-0.6C17.8,17.7,17.7,17.6,17.5,17.6z
			 M17.4,20.1c0,0.1,0,0.2-0.1,0.2c0,0-0.1,0.1-0.2,0.1c-0.1,0-0.1,0-0.2,0c0,0-0.1-0.1-0.1-0.1v-2c0,0,0.1-0.1,0.1-0.1
			c0,0,0.1,0,0.1,0c0.1,0,0.2,0,0.2,0.1c0,0.1,0.1,0.1,0.1,0.2V20.1z"/>
		
		<path  fill="#ffffff"  d="M15.2,20c-0.1,0.1-0.1,0.1-0.2,0.2c-0.1,0-0.1,0.1-0.2,0.1c-0.1,0-0.1,0-0.1-0.1c0,0,0-0.1,0-0.2v-2.4H14v2.6
			c0,0.2,0,0.3,0.1,0.4c0.1,0.1,0.2,0.1,0.3,0.1c0.1,0,0.2,0,0.4-0.1c0.1-0.1,0.2-0.2,0.4-0.3v0.3h0.6v-3.2h-0.6V20z"/>
		
		<path  fill="#ffffff"  d="M16,6C10.5,6,6,10.5,6,16c0,5.5,4.5,10,10,10c5.5,0,10-4.5,10-10C26,10.5,21.5,6,16,6z M17.5,11.1h0.7v2.7
			c0,0.1,0,0.1,0,0.2c0,0,0.1,0.1,0.1,0.1c0.1,0,0.1,0,0.2-0.1c0.1,0,0.2-0.1,0.2-0.2v-2.6h0.7v3.5h-0.7v-0.4
			c-0.1,0.1-0.3,0.3-0.4,0.3c-0.1,0.1-0.3,0.1-0.4,0.1c-0.2,0-0.3-0.1-0.4-0.2c-0.1-0.1-0.1-0.3-0.1-0.5V11.1z M14.9,11.9
			c0-0.3,0.1-0.5,0.3-0.6c0.2-0.2,0.5-0.2,0.8-0.2c0.3,0,0.5,0.1,0.7,0.3c0.2,0.2,0.3,0.4,0.3,0.7v1.8c0,0.3-0.1,0.5-0.3,0.7
			c-0.2,0.2-0.4,0.3-0.8,0.3c-0.3,0-0.6-0.1-0.7-0.3c-0.2-0.2-0.3-0.4-0.3-0.7V11.9z M12.9,9.9l0.5,1.9h0.1L14,9.9h0.8l-0.9,2.8v2
			h-0.8v-1.9l-1-2.9H12.9z M22.3,19.8c0,1.3-1,2.3-2.3,2.3H12c-1.3,0-2.3-1-2.3-2.3V18c0-1.3,1-2.3,2.3-2.3H20c1.3,0,2.3,1,2.3,2.3
			V19.8z"/>
		<path  fill="#ffffff"  d="M15.9,14.1c0.1,0,0.2,0,0.2-0.1c0.1-0.1,0.1-0.1,0.1-0.2v-1.9c0-0.1,0-0.1-0.1-0.2c-0.1,0-0.1-0.1-0.2-0.1
			c-0.1,0-0.2,0-0.2,0.1c-0.1,0-0.1,0.1-0.1,0.2v1.9c0,0.1,0,0.2,0.1,0.2C15.7,14.1,15.8,14.1,15.9,14.1z"/>
		
		<polygon  fill="#ffffff"  points="11.5,17.1 12.3,17.1 12.3,20.8 13,20.8 13,17.1 13.7,17.1 13.7,16.5 11.5,16.5 	"/>
		
		<path  fill="#ffffff"  d="M19.4,17.6c-0.3,0-0.5,0.1-0.7,0.3c-0.2,0.2-0.3,0.4-0.3,0.7v1.4c0,0.3,0.1,0.5,0.2,0.7
			c0.2,0.2,0.4,0.3,0.7,0.3c0.3,0,0.6-0.1,0.7-0.2c0.2-0.2,0.2-0.4,0.2-0.7v-0.2h-0.7v0.1c0,0.2,0,0.3-0.1,0.4c0,0.1-0.1,0.1-0.2,0.1
			c-0.1,0-0.2,0-0.2-0.1c0-0.1-0.1-0.2-0.1-0.3v-0.6h1.2v-0.8c0-0.3-0.1-0.5-0.2-0.7C19.9,17.6,19.7,17.6,19.4,17.6z M19.6,18.8h-0.6
			v-0.3c0-0.1,0-0.2,0.1-0.3c0-0.1,0.1-0.1,0.2-0.1c0.1,0,0.2,0,0.2,0.1c0,0.1,0.1,0.2,0.1,0.3V18.8z"/>
</svg>
